<svg xmlns="http://www.w3.org/2000/svg" viewBox="0 0 1600 640" role="img" aria-labelledby="title desc">
  <title id="title">Brand Design Skill banner</title>
  <desc id="desc">A Swiss editorial banner for Brand Design Skill.</desc>
  <rect width="1600" height="640" fill="#F6F2EA"/>
  <path d="M0 512h1600" stroke="#0B0B0F" stroke-width="2" opacity=".16"/>
  <path d="M320 0v640M640 0v640M960 0v640M1280 0v640" stroke="#0B0B0F" stroke-width="1" opacity=".08"/>
  <g transform="translate(116 116)">
    <rect width="176" height="176" rx="36" fill="#0B0B0F"/>
    <g fill="none" stroke="#F6F2EA" stroke-width="10" stroke-linecap="round" stroke-linejoin="round">
      <path d="M52 124V44h40c22.1 0 34.3 11.1 34.3 28.6 0 10.4-5.4 18.7-14.3 23.5 11.8 4 20 13.4 20 25.1 0 17.6-13.2 28.8-34.3 28.8H52"/>
      <path d="M70 78h22.9c8.6 0 14.3-4.7 14.3-11.4S101.5 55.2 92.9 55.2H70V78Z"/>
      <path d="M70 138h25.7c10.3 0 17.2-5.4 17.2-14.3s-6.9-14.3-17.2-14.3H70V138Z"/>
    </g>
    <circle cx="137" cy="45" r="10" fill="#69E6A3"/>
    <path d="M38 145h108" stroke="#69E6A3" stroke-width="6" stroke-linecap="round"/>
  </g>
  <g fill="#0B0B0F">
    <text x="352" y="178" font-family="Inter, ui-sans-serif, system-ui, -apple-system, BlinkMacSystemFont, Segoe UI, sans-serif" font-size="34" font-weight="600" letter-spacing="4">CODEX SKILL</text>
    <text x="352" y="286" font-family="Inter, ui-sans-serif, system-ui, -apple-system, BlinkMacSystemFont, Segoe UI, sans-serif" font-size="92" font-weight="760">Brand Design Skill</text>
    <text x="356" y="358" font-family="Inter, ui-sans-serif, system-ui, -apple-system, BlinkMacSystemFont, Segoe UI, sans-serif" font-size="36" font-weight="450">Strategy to logo systems, VI guidelines, and HTML brand manuals.</text>
  </g>
  <g transform="translate(1120 164)" fill="none" stroke="#0B0B0F" stroke-linecap="round" stroke-linejoin="round">
    <rect x="0" y="0" width="300" height="300" rx="32" stroke-width="3"/>
    <path d="M60 240V60h90c49.7 0 77.1 25 77.1 64.3 0 23.4-12.1 42.2-32.1 52.9 26.5 9 45 30 45 56.3 0 39.6-29.7 64.5-77.1 64.5H60" stroke-width="18"/>
    <path d="M102 137h51.4c19.4 0 32.1-10.5 32.1-25.7s-12.7-25.7-32.1-25.7H102V137Z" stroke-width="18"/>
    <path d="M102 272h57.8c23.1 0 38.5-12.2 38.5-32.1s-15.4-32.1-38.5-32.1H102V272Z" stroke-width="18"/>
    <circle cx="254" cy="54" r="18" fill="#69E6A3" stroke="none"/>
  </g>
  <rect x="116" y="500" width="176" height="12" rx="6" fill="#69E6A3"/>
  <text x="352" y="514" fill="#0B0B0F" font-family="Inter, ui-sans-serif, system-ui, -apple-system, BlinkMacSystemFont, Segoe UI, sans-serif" font-size="24" font-weight="560">Design is not decoration. Design is a system compressed into form.</text>
</svg>
